# xmcd CD database file
#
# Track frame offsets:
#	150
#	22652
#	41107
#	61930
#	88552
#	113082
#	141487
#	155157
#	175690
#	196787
#	229160
#	247337
#	253650
#
# Disc length: 3545 seconds
#
# Revision: 4
# Processed by: cddbd v1.4PL0 Copyright (c) Steve Scherf et al.
# Submitted via: CDex 1.50Beta7
#
DISCID=af0dd70d
DTITLE=The Blue Hawaiians - Savage Night
DYEAR=1999
DGENRE=Rock
TTITLE0=A Cheat
TTITLE1=Savage Night
TTITLE2=Flesh and Soul
TTITLE3=Shakin' All Over
TTITLE4=Experiment In Terror
TTITLE5=Highlife
TTITLE6=Sway
TTITLE7=Lonely Star
TTITLE8=Jockey Full Of Bourbon
TTITLE9=Trouble Bay
TTITLE10=Hot Rods To Honolulu
TTITLE11=Hammond Organ Unknown
TTITLE12=Unknown
EXTD=YEAR: 1999
EXTT0=
EXTT1=
EXTT2=
EXTT3=
EXTT4=
EXTT5=
EXTT6=
EXTT7=
EXTT8=
EXTT9=
EXTT10=
EXTT11=
EXTT12=
PLAYORDER=
